<svg width="350" height="350" viewBox="0 0 350 350" fill="none" xmlns="http://www.w3.org/2000/svg">
<rect width="350" height="350" rx="25" fill="#0084F8"/>
<path d="M125.586 285.692L124.078 283.601C124.644 282.729 125.014 281.759 125.163 280.75C125.879 276.87 126.031 272.919 125.618 269.002C125.035 263.596 123.032 258.405 119.787 253.886C118.276 251.662 116.538 249.579 114.596 247.665L157.874 223.839C157.187 223.206 153.537 219.809 149.071 215.176C146.23 212.23 143.638 209.381 141.366 206.718C138.858 203.82 136.535 200.787 134.411 197.634C132.337 194.465 130.12 191.055 127.883 187.069C125.298 182.525 123.061 177.818 121.189 172.983C120.122 170.211 119.187 167.368 118.374 164.551C117.508 161.47 116.79 158.307 116.247 155.157C115.654 151.715 115.249 148.247 115.034 144.767C114.801 140.967 114.78 137.158 114.972 133.356C115.108 130.478 115.485 127.615 116.101 124.792C116.66 122.273 117.413 119.795 118.356 117.376C119.972 113.276 122.07 109.354 124.613 105.682C126.468 102.996 128.612 100.492 131.014 98.2111C133.429 95.9126 136.045 93.8041 138.835 91.9073C141.544 90.0598 144.397 88.4014 147.371 86.9458C150.124 85.5847 152.986 84.4227 155.931 83.4702C156.85 83.1775 158.384 82.7174 160.52 82.1855C164.961 81.0669 169.488 80.2698 174.061 79.8013C178.588 79.2054 183.196 79.4219 187.635 80.4392C189.734 81.0306 191.757 81.834 193.667 82.8351C195.814 83.9584 197.806 85.3185 199.601 86.8859C204.005 90.8594 207.287 95.7801 209.156 101.213C210.227 104.026 210.986 106.935 211.421 109.892C211.772 112.358 211.783 114.857 211.453 117.326C210.592 122.248 208.872 127.006 206.363 131.413C204.199 135.356 201.554 139.055 198.482 142.438C196.409 144.809 194.18 147.058 191.808 149.172C189.218 151.478 186.433 153.588 183.481 155.482C177.633 159.066 171.364 162.018 164.794 164.279C158.667 166.483 153.043 168.014 149.683 168.929L149.655 168.936L148.728 169.189C157.475 189.093 168.021 202.305 181.916 210.773C187.19 214.167 193.162 216.511 199.458 217.657C205.754 218.803 212.237 218.726 218.499 217.432C219.378 217.291 220.311 217.101 221.311 216.852C232.387 214.093 245.191 206.417 244.817 193.872C244.471 187.318 242.244 180.97 238.366 175.486C236.617 172.891 234.561 170.486 232.234 168.316L262.323 156.796C263.645 158.857 264.805 161.005 265.795 163.221C266.813 165.451 267.669 167.742 268.358 170.078C269.161 172.771 269.675 175.532 269.893 178.319C270.089 182.923 269.37 187.52 267.772 191.882C266.482 195.697 264.61 199.321 262.214 202.644C259.521 206.152 256.412 209.369 252.946 212.232C248.807 215.713 244.144 218.614 239.104 220.844C235.032 222.572 230.807 223.967 226.475 225.014C219.259 226.733 211.913 227.937 204.5 228.617C197.912 229.145 191.296 229.294 184.689 229.064C180.18 228.836 175.659 228.953 171.171 229.415C169.614 229.676 168.031 230.006 166.465 230.396C161.129 231.753 155.994 233.718 151.177 236.246C149.143 237.29 147.187 238.459 145.321 239.746V239.746C146.278 241.63 147.121 243.563 147.846 245.535C148.559 247.44 149.155 249.382 149.631 251.35C150.157 253.486 150.464 255.665 150.547 257.855C150.595 261.238 149.842 264.59 148.341 267.673C147.173 270.183 145.613 272.521 143.712 274.609C142 276.424 140.076 278.055 137.975 279.473C136.094 280.752 134.119 281.907 132.064 282.93C129.976 283.988 127.811 284.908 125.583 285.682L125.586 285.692ZM160.904 93.6152C158.394 94.2175 155.997 95.1729 153.798 96.4484C148.847 99.6128 144.897 103.951 142.359 109.012C139.447 117.255 138.488 125.986 139.549 134.606C140.423 141.548 141.805 148.427 143.686 155.194C144.895 159.146 146.314 162.978 146.382 163.135C148.676 162.39 150.925 161.529 153.119 160.557C155.013 159.73 157.929 158.295 159.89 157.172C164.493 154.59 168.82 151.606 172.814 148.261C177.692 143.995 181.522 138.8 184.041 133.032C185.163 130.554 185.993 127.971 186.517 125.327C186.995 122.901 187.306 120.449 187.45 117.985C187.87 113.458 187.302 108.898 185.778 104.58C184.714 101.836 182.976 99.3602 180.702 97.349C178.429 95.3377 175.682 93.8462 172.68 92.9927C168.755 92.3661 164.727 92.579 160.904 93.6152V93.6152Z" fill="#EEEEEE" stroke="#EEEEEE" stroke-width="1.71159"/>
<path d="M123.586 285.692L122.078 283.601C122.644 282.729 123.014 281.759 123.163 280.75C123.879 276.87 124.031 272.919 123.618 269.002C123.035 263.596 121.032 258.405 117.787 253.886C116.276 251.662 114.538 249.579 112.596 247.665L155.874 223.839C155.187 223.206 151.537 219.809 147.071 215.176C144.23 212.23 141.638 209.381 139.366 206.718C136.858 203.82 134.535 200.787 132.411 197.634C130.337 194.465 128.12 191.055 125.883 187.069C123.298 182.525 121.061 177.818 119.189 172.983C118.122 170.211 117.187 167.368 116.374 164.551C115.508 161.47 114.79 158.307 114.247 155.157C113.654 151.715 113.249 148.247 113.034 144.767C112.801 140.967 112.78 137.158 112.972 133.356C113.108 130.478 113.485 127.615 114.101 124.792C114.66 122.273 115.413 119.795 116.356 117.376C117.972 113.276 120.07 109.354 122.613 105.682C124.468 102.996 126.612 100.492 129.014 98.2111C131.429 95.9126 134.045 93.8041 136.835 91.9073C139.544 90.0598 142.397 88.4014 145.371 86.9458C148.124 85.5847 150.986 84.4227 153.931 83.4702C154.85 83.1775 156.384 82.7174 158.52 82.1855C162.961 81.0669 167.488 80.2698 172.061 79.8013C176.588 79.2054 181.196 79.4219 185.635 80.4392C187.734 81.0306 189.757 81.834 191.667 82.8351C193.814 83.9584 195.806 85.3185 197.601 86.8859C202.005 90.8594 205.287 95.7801 207.156 101.213C208.227 104.026 208.986 106.935 209.421 109.892C209.772 112.358 209.783 114.857 209.453 117.326C208.592 122.248 206.872 127.006 204.363 131.413C202.199 135.356 199.554 139.055 196.482 142.438C194.409 144.809 192.18 147.058 189.808 149.172C187.218 151.478 184.433 153.588 181.481 155.482C175.633 159.066 169.364 162.018 162.794 164.279C156.667 166.483 151.043 168.014 147.683 168.929L147.655 168.936L146.728 169.189C155.475 189.093 166.021 202.305 179.916 210.773C185.19 214.167 191.162 216.511 197.458 217.657C203.754 218.803 210.237 218.726 216.499 217.432C217.378 217.291 218.311 217.101 219.311 216.852C230.387 214.093 243.191 206.417 242.817 193.872C242.471 187.318 240.244 180.97 236.366 175.486C234.617 172.891 232.561 170.486 230.234 168.316L260.323 156.796C261.645 158.857 262.805 161.005 263.795 163.221C264.813 165.451 265.669 167.742 266.358 170.078C267.161 172.771 267.675 175.532 267.893 178.319C268.089 182.923 267.37 187.52 265.772 191.882C264.482 195.697 262.61 199.321 260.214 202.644C257.521 206.152 254.412 209.369 250.946 212.232C246.807 215.713 242.144 218.614 237.104 220.844C233.032 222.572 228.807 223.967 224.475 225.014C217.259 226.733 209.913 227.937 202.5 228.617C195.912 229.145 189.296 229.294 182.689 229.064C178.18 228.836 173.659 228.953 169.171 229.415C167.614 229.676 166.031 230.006 164.465 230.396C159.129 231.753 153.994 233.718 149.177 236.246C147.143 237.29 145.187 238.459 143.321 239.746V239.746C144.278 241.63 145.121 243.563 145.846 245.535C146.559 247.44 147.155 249.382 147.631 251.35C148.157 253.486 148.464 255.665 148.547 257.855C148.595 261.238 147.842 264.59 146.341 267.673C145.173 270.183 143.613 272.521 141.712 274.609C140 276.424 138.076 278.055 135.975 279.473C134.094 280.752 132.119 281.907 130.064 282.93C127.976 283.988 125.811 284.908 123.583 285.682L123.586 285.692ZM158.904 93.6152C156.394 94.2175 153.997 95.1729 151.798 96.4484C146.847 99.6128 142.897 103.951 140.359 109.012C137.447 117.255 136.488 125.986 137.549 134.606C138.423 141.548 139.805 148.427 141.686 155.194C142.895 159.146 144.314 162.978 144.382 163.135C146.676 162.39 148.925 161.529 151.119 160.557C153.013 159.73 155.929 158.295 157.89 157.172C162.493 154.59 166.82 151.606 170.814 148.261C175.692 143.995 179.522 138.8 182.041 133.032C183.163 130.554 183.993 127.971 184.517 125.327C184.995 122.901 185.306 120.449 185.45 117.985C185.87 113.458 185.302 108.898 183.778 104.58C182.714 101.836 180.976 99.3602 178.702 97.349C176.429 95.3377 173.682 93.8462 170.68 92.9927C166.755 92.3661 162.727 92.579 158.904 93.6152V93.6152Z" fill="white" stroke="white" stroke-width="1.71159"/>
</svg>
